# xmcd
#
# Track frame offsets: 
#        150
#        18217
#        34130
#        57585
#        72190
#        86557
#        107722
#        123325
#        138965
#        156560
#        168937
#        182347
#        192950
#        205615
#
# Disc length: 2920 seconds
#
# Revision: 7
# Processed by: cddbd v1.5.2PL0 Copyright (c) Steve Scherf et al.
# Submitted via: ExactAudioCopy v0.99pb5
#
DISCID=b90b660e
DTITLE=Muddy Waters - The folk singer
DYEAR=1963
DGENRE=Blues
TTITLE0=My home is in the Delta
TTITLE1=Long distance
TTITLE2=My captain
TTITLE3=Good morning little school girl
TTITLE4=You gonna need my help
TTITLE5=Cold weather blues
TTITLE6=Big leg woman
TTITLE7=Country boy
TTITLE8=Feel like going home
TTITLE9=The same thing
TTITLE10=You can't lose what you never had
TTITLE11=My John the Conquerer Root
TTITLE12=Short dress woman
TTITLE13=Put me in your lay away
EXTD=
EXTT0=
EXTT1=
EXTT2=
EXTT3=
EXTT4=
EXTT5=
EXTT6=
EXTT7=
EXTT8=
EXTT9=
EXTT10=
EXTT11=
EXTT12=
EXTT13=
PLAYORDER=
